<svg xmlns="http://www.w3.org/2000/svg" width="128" height="128" viewBox="0 0 128 128" fill="none">
  <defs>
    <linearGradient id="g" x1="20" y1="20" x2="108" y2="108" gradientUnits="userSpaceOnUse">
      <stop stop-color="#57D0FF"/>
      <stop offset="0.45" stop-color="#C9F3FF"/>
      <stop offset="1" stop-color="#9B5CFF"/>
    </linearGradient>
    <filter id="s" x="-20%" y="-20%" width="140%" height="140%">
      <feDropShadow dx="0" dy="10" stdDeviation="10" flood-color="#000" flood-opacity="0.35"/>
    </filter>
  </defs>
  <rect x="12" y="12" width="104" height="104" rx="28" fill="rgba(255,255,255,0.04)" stroke="rgba(255,255,255,0.14)"/>
  <path d="M38 88 58 40h12l20 48h-13l-4-10H55l-4 10H38Zm21-20h10l-5-14-5 14Z" fill="url(#g)" filter="url(#s)"/>
  <path d="M90 40c-6 7-13 11-21 13 10 1 18-1 25-6-2 7-7 13-15 18 10-2 18-7 23-15-1 11-7 22-18 29" stroke="rgba(255,255,255,0.55)" stroke-width="2.5" stroke-linecap="round"/>
</svg>

